<?xml version="1.0" encoding="iso-8859-1"?>
<!-- Generator: Adobe Illustrator 19.0.0, SVG Export Plug-In . SVG Version: 6.00 Build 0)  -->
<svg version="1.1" id="Capa_1" xmlns="http://www.w3.org/2000/svg" xmlns:xlink="http://www.w3.org/1999/xlink" x="0px" y="0px"
	 viewBox="0 0 512.001 512.001" style="enable-background:new 0 0 512.001 512.001;" xml:space="preserve">
<g>
	<path style="fill:#72BE4F;" d="M328.085,293.106h-66.824v10.007h0.006v43.257c0,18.467,14.971,33.439,33.439,33.439
		s33.439-14.971,33.439-33.439C328.144,309.143,328.085,294.497,328.085,293.106z"/>
	<path style="fill:#72BE4F;" d="M183.86,293.106c0,22.527,0,18.257,0,53.264c0,18.467,14.971,33.439,33.439,33.439
		s33.439-14.971,33.439-33.439c0-1.653-0.054-51.609-0.054-53.264H183.86z"/>
</g>
<g>
	<path style="fill:#66AF3F;" d="M281.955,346.371v-43.257h-0.006v-10.007h-20.688v10.007h0.006v43.257
		c0,18.467,14.971,33.439,33.439,33.439c3.612,0,7.086-0.58,10.344-1.639C291.646,373.813,281.955,361.227,281.955,346.371z"/>
	<path style="fill:#66AF3F;" d="M204.548,346.371c0-56.059,0-18.15,0-53.264H183.86c0,22.527,0,18.257,0,53.264
		c0,18.467,14.971,33.439,33.439,33.439c3.611,0,7.086-0.58,10.344-1.639C214.239,373.813,204.548,361.227,204.548,346.371z"/>
	<path style="fill:#66AF3F;" d="M212.462,60.141c-2.767,0-5.444-1.484-6.844-4.093l-21.73-40.523
		c-2.025-3.776-0.606-8.478,3.17-10.503c3.776-2.024,8.478-0.605,10.504,3.17l21.73,40.523c2.025,3.776,0.606,8.478-3.17,10.504
		C214.955,59.844,213.7,60.141,212.462,60.141z"/>
</g>
<g>
	<path style="fill:#72BE4F;" d="M296.519,59.235c-3.775-2.026-5.193-6.729-3.167-10.505l21.745-40.514
		c2.026-3.775,6.729-5.193,10.505-3.167c3.775,2.026,5.193,6.729,3.167,10.505l-21.745,40.514
		C304.997,59.844,300.293,61.262,296.519,59.235z"/>
	<path style="fill:#72BE4F;" d="M386.024,113.614c-17.384,0-31.476,14.093-31.476,31.476c0,11.551,0,80.642,0,91.579
		c0,17.384,14.092,31.476,31.476,31.476s31.476-14.093,31.476-31.476c0-10.937,0-80.029,0-91.579
		C417.5,127.706,403.408,113.614,386.024,113.614z"/>
	<path style="fill:#72BE4F;" d="M125.978,113.614c-17.384,0-31.476,14.093-31.476,31.476c0,10.937,0,80.029,0,91.579
		c0,17.384,14.092,31.476,31.476,31.476s31.476-14.093,31.476-31.476c0-11.551,0-80.642,0-91.579
		C157.454,127.706,143.362,113.614,125.978,113.614z"/>
</g>
<g>
	<path style="fill:#D6D6D8;" d="M55.354,507.781c19.833,0,19.514,0.326,19.514-0.708c0-77.904,0.353-74.157-0.681-74.157H37.434
		c-21.353,0-39.336,18.277-37.272,40.928c1.733,19.03,18.496,33.937,38.162,33.937h8.764c0.713,0,0.458,0.479,0.458-19.828
		c0-0.218-0.178-0.396-0.396-0.396h-9.196c-15.295,0-23.145-17.332-13.542-28.447c3.278-3.795,8.025-5.971,13.022-5.971h15.039
		c1.197,0,2.17,0.974,2.17,2.17C54.644,510.803,54.317,507.781,55.354,507.781z"/>
	<path style="fill:#D6D6D8;" d="M156.185,507.781c1.007,0,0.646,1.213,0.646-37.432c0-21.384-18.315-39.343-40.932-37.273
		c-19.029,1.735-33.935,18.498-33.935,38.162c0,37.906-0.32,36.543,0.576,36.543c20.036,0,19.648,0.308,19.648-0.726v-36.187
		c0-9.425,7.31-17.724,17.167-17.724c9.625,0,17.252,7.792,17.252,17.206v36.37C136.608,508.169,136.847,507.781,156.185,507.781z"
		/>
	<path style="fill:#D6D6D8;" d="M201.361,507.781c21.354,0,39.337-18.278,37.272-40.928c-1.735-19.03-18.499-33.937-38.165-33.937
		h-36.219c-0.177,0-0.321,0.144-0.321,0.322v19.299c0,0.332,0.27,0.603,0.603,0.603h36.308c8.773,0,16.314,6.284,17.539,14.618
		c1.554,10.555-6.611,19.8-17.017,19.8c-38.843,0-37.433-0.37-37.433,0.867v18.486C163.928,508.148,162.552,507.781,201.361,507.781
		z"/>
	<path style="fill:#D6D6D8;" d="M320.755,507.667c0-12.379,0.921-19.294-6.949-29.41c15.984-18.924,2.47-45.34-20.939-45.34
		c-0.386,0-46.977-0.138-46.977,0.249c0,0.222-0.079,19.975,0.143,19.975h47.346c3.118,0,5.914,1.943,6.798,4.725
		c1.506,4.738-2.006,9.203-6.611,9.203h-47.358c-0.175,0-0.318,0.143-0.318,0.318v19.484c0,0.232,0.189,0.422,0.422,0.422h43.84
		c5.723,0,10.379,4.656,10.379,10.379v10.083C300.709,507.754,320.755,507.845,320.755,507.667z"/>
	<path style="fill:#D6D6D8;" d="M369.124,433.109c-1.27-0.127-2.54-0.19-3.801-0.19c-9.922,0-19.411,3.892-26.492,10.972
		c-22.242,22.239-8.672,60.572,22.618,63.698c23.667,2.362,43.435-17.451,41.076-41.072
		C400.767,448.92,386.72,434.87,369.124,433.109z M382.253,473.258c-2.269,13.742-19.277,19.108-29.132,9.254
		c-9.933-9.934-4.334-26.887,9.253-29.131C374.137,451.436,384.194,461.496,382.253,473.258z"/>
</g>
<path style="fill:#C2C2C4;" d="M410.234,507.781h19.386c0.23,0,0.418-0.187,0.418-0.418V433.52c0-0.333-0.271-0.604-0.605-0.604
	h-19.342c-0.153,0-0.277,0.124-0.277,0.277v74.168C409.815,507.593,410.003,507.781,410.234,507.781z"/>
<path style="fill:#D6D6D8;" d="M437.866,507.781h36.702c21.352,0,39.337-18.278,37.271-40.929
	c-1.735-19.03-18.499-33.936-38.164-33.936c-37.272,0-36.54-0.482-36.54,1.189c0,18.79-0.371,19.034,1.064,19.034h35.846
	c15.295,0,23.148,17.326,13.548,28.444c-3.278,3.796-8.026,5.974-13.025,5.974h-36.667c-1.056,0-0.766-0.385-0.766,19.492
	C437.134,507.453,437.463,507.781,437.866,507.781z"/>
<g>
	<path style="fill:#C2C2C4;" d="M20.398,473.844c-2.046-22.489,15.76-40.928,37.272-40.928H37.434
		c-21.353,0-39.336,18.277-37.272,40.928c1.733,19.03,18.496,33.937,38.162,33.937h8.764c0.627,0,0.458-0.947,0.458-1.607
		C32.965,501.843,21.796,489.187,20.398,473.844z"/>
	<path style="fill:#C2C2C4;" d="M129.586,434.307c-24.562-6.924-47.62,12.265-47.62,36.931c0,37.906-0.32,36.543,0.576,36.543
		c20.036,0,19.648,0.308,19.648-0.726c0-40.093-0.019-36.008,0.043-37.16C102.813,453.123,114.205,438.701,129.586,434.307z"/>
	<path style="fill:#C2C2C4;" d="M184.163,488.424c0-0.478,0.389-0.867,0.867-0.867c-21.443,0-21.102-0.327-21.102,0.867
		c0,19.5-0.329,19.357,0.87,19.357h20.235C183.835,507.781,184.163,507.917,184.163,488.424z"/>
	<path style="fill:#C2C2C4;" d="M164.53,453.14h20.235c-0.332,0-0.603-0.27-0.603-0.603v-19.299c0-0.177,0.144-0.322,0.321-0.322
		h-20.235c-0.177,0-0.321,0.144-0.321,0.322v19.299C163.928,452.869,164.198,453.14,164.53,453.14z"/>
	<path style="fill:#C2C2C4;" d="M266.268,453.14c-0.222,0-0.143-19.752-0.143-19.975c0-0.137,0.112-0.249,0.249-0.249h-20.235
		c-0.137,0-0.249,0.112-0.249,0.249v19.832C245.89,453.219,266.046,453.14,266.268,453.14z"/>
	<path style="fill:#C2C2C4;" d="M266.125,486.87v-19.484c0-0.175,0.143-0.318,0.318-0.318h-20.235c-0.175,0-0.318,0.143-0.318,0.318
		v19.484c0,0.232,0.189,0.422,0.422,0.422h20.235C266.315,487.291,266.125,487.102,266.125,486.87z"/>
	<path style="fill:#C2C2C4;" d="M375.462,434.308c-2.048-0.576-4.166-0.982-6.338-1.199c-1.27-0.127-2.54-0.19-3.801-0.19
		c-9.922,0-19.411,3.892-26.492,10.972c-26.805,26.802-0.95,72.945,36.506,62.498C338.7,496.086,339.316,444.397,375.462,434.308z"
		/>
	<path style="fill:#C2C2C4;" d="M458.434,453.14c-1.434,0-1.064-0.242-1.064-19.034c0-0.656,0.533-1.189,1.189-1.189
		c-21.074,0-21.424-0.444-21.424,1.189v17.971C437.134,453.541,437.229,453.14,458.434,453.14z"/>
	<path style="fill:#C2C2C4;" d="M457.37,507.05c0-19.884-0.289-19.492,0.766-19.492h-20.235c-1.056,0-0.766-0.385-0.766,19.492
		c0,0.403,0.328,0.731,0.731,0.731h20.235C457.698,507.781,457.37,507.453,457.37,507.05z"/>
</g>
<g>
	<path style="fill:#72BE4F;" d="M182.009,294.141c2.506,0,150.52,0,147.985,0c9.561,0,17.313-7.751,17.313-17.313v-143.4
		c0-1.408-1.141-2.549-2.549-2.549H167.267c-1.421,0-2.572,1.152-2.572,2.572v143.376
		C164.695,286.389,172.447,294.141,182.009,294.141z"/>
	<path style="fill:#72BE4F;" d="M255.875,34.818c-50.357,0-91.18,38.415-91.18,85.801c0,0.01,0,0.02,0,0.03
		c0.001,1.656,1.267,2.988,2.8,2.988h176.76c1.533,0,2.799-1.332,2.8-2.988c0-0.01,0-0.02,0-0.03
		C347.055,73.232,306.232,34.818,255.875,34.818z"/>
</g>
<g>
	<path style="fill:#66AF3F;" d="M375.236,236.669c0-10.937,0-80.029,0-91.579c0-13.759,8.831-25.448,21.132-29.728
		c-20.475-7.124-41.82,8.124-41.82,29.728c0,11.551,0,80.642,0,91.579c0,17.384,14.092,31.476,31.476,31.476
		c3.625,0,7.103-0.62,10.344-1.748C384.067,262.118,375.236,250.428,375.236,236.669z"/>
	<path style="fill:#66AF3F;" d="M115.19,236.669c0-11.551,0-80.642,0-91.579c0-13.759,8.831-25.448,21.132-29.728
		c-3.241-1.128-6.719-1.748-10.344-1.748c-17.384,0-31.476,14.093-31.476,31.476c0,10.937,0,80.029,0,91.579
		c0,17.384,14.092,31.476,31.476,31.476c3.625,0,7.103-0.62,10.344-1.748C124.021,262.118,115.19,250.428,115.19,236.669z"/>
	<path style="fill:#66AF3F;" d="M185.383,276.827V133.451c0-1.421,1.152-2.572,2.572-2.572h-20.688
		c-1.421,0-2.572,1.152-2.572,2.572v143.376c0,9.562,7.752,17.314,17.314,17.314c8.297,0,12.44,0,20.688,0
		C193.134,294.141,185.383,286.389,185.383,276.827z"/>
	<path style="fill:#66AF3F;" d="M185.383,120.649c-0.027-44.389,35.651-80.477,80.836-85.279
		c-54.414-5.783-101.524,34.249-101.524,85.249c0,0.01,0,0.02,0,0.03c0.001,1.657,1.267,2.988,2.8,2.988h20.688
		C186.65,123.637,185.384,122.306,185.383,120.649z"/>
</g>
<g>
	<circle style="fill:#D6D6D8;" cx="215.021" cy="83.21" r="10.246"/>
	<circle style="fill:#D6D6D8;" cx="296.981" cy="83.21" r="10.246"/>
</g>
<g>
</g>
<g>
</g>
<g>
</g>
<g>
</g>
<g>
</g>
<g>
</g>
<g>
</g>
<g>
</g>
<g>
</g>
<g>
</g>
<g>
</g>
<g>
</g>
<g>
</g>
<g>
</g>
<g>
</g>
</svg>
