<svg xmlns="http://www.w3.org/2000/svg" xmlns:xlink="http://www.w3.org/1999/xlink" width="805.1" height="201.12" viewBox="0 0 754.781 188.549" xmlns:v="https://vecta.io/nano"><defs><clipPath ><path d="M7.2 446.702h622.08v-821.76H7.2z"/></clipPath><path id="B" d="M335.231 214.711c0-.974 5.49-18.349 12.199-38.61l12.199-36.839h18.301c16.369 0 18.164.431 17.001 4.085l-23.917 71.773-17.892.682c-9.84.375-17.892-.116-17.892-1.09z"/></defs><g transform="matrix(.665419 0 0 .665419 75.08909 -24.01974)"><g fill="#221816"><path d="M230.197 214.501c0-1.09 5.659-18.202 12.577-38.027l12.577-36.045 17.766-.682c9.772-.375 17.766.248 17.766 1.385s-2.101 8.173-4.668 15.635-4.668 13.929-4.668 14.37 7.292.802 16.204.802h16.204l10.524-32.677h19.732l-25.724 77.025h-20.153l4.156-11.087c8.759-23.365 9.481-21.59-8.793-21.59h-16.173l-11.527 31.51-17.9.682c-9.845.375-17.9-.21-17.9-1.3z"/><use xlink:href="#B"/><path d="M386.581 213.956c0-1.455 1.087-4.676 2.416-7.159 2.204-4.119 5.159-4.515 33.675-4.515 30.989 0 31.3-.053 36.096-6.15 9.235-11.741 7.639-12.523-25.579-12.523-24.904 0-30.66-.635-31.762-3.506-3.268-8.515 7.01-26.792 19.982-35.534 7.342-4.948 10.302-5.307 43.708-5.307 19.708 0 35.833.457 35.833 1.015s-1.024 3.709-2.276 7.002c-2.213 5.82-2.869 5.987-23.457 5.987-21.264 0-33.288 3.337-35.565 9.871-2.582 7.407 1.068 8.802 23.036 8.802h21.924v7.077c0 10.018-5.208 20.951-13.864 29.101l-7.436 7.002-38.366.741c-27.46.53-38.366-.012-38.366-1.904z"/><use xlink:href="#B" x="156.383"/><path d="M552.382 211.772c-4.102-7.664-2.738-18.309 5.883-45.925l8.299-26.585h36.742l-9.39 28.071c-5.165 15.439-8.796 29.618-8.07 31.51 1.041 2.714 6.261 3.439 24.734 3.439 12.878 0 23.4.788 23.382 1.751s-.665 4.114-1.439 7.002c-1.387 5.175-1.967 5.252-39.565 5.252-35.337 0-38.337-.334-40.574-4.515zm93.803 1.597l25.729-74.107h36.609l-26.541 77.025h-18.409c-13.716 0-18.149-.744-17.388-2.918zm62.965.117c-1.54-1.54-2.801-7.821-2.801-13.957 0-20.565 13.167-45.173 29.198-54.567 9.082-5.322 11.926-5.699 43.052-5.699h33.328l-1.407 5.252c-.774 2.888-1.422 6.039-1.439 7.002s-10.394 1.751-23.058 1.751c-28.879 0-32.861 2.519-40.251 25.463-7.401 22.98-6.886 23.553 21.19 23.553 12.878 0 23.414.457 23.414 1.015s-1.024 3.709-2.276 7.002l-2.276 5.987h-36.936c-25.616 0-37.795-.858-39.737-2.801zm162.855-74.223c-22.054 0-25.832.609-32.85 5.311-21.419 14.351-36.242 55.193-24.964 68.782 1.701 2.05 10.59 2.917 29.573 2.881 40.87-.077 49.603-5.229 58.717-34.624 6.072-19.582 5.937-30.124-.474-36.949-4.69-4.993-6.967-5.402-30.001-5.402zm3.592 14.004c13.073 0 14.665 4.92 7.818 24.152-4.55 12.781-7.75 17.925-13.658 21.946-8.419 5.73-13.012 6.381-19.279 2.731-5.286-3.079-5.148-7.432.798-25.037 5.561-16.466 13.051-23.792 24.321-23.792zm43.029 25.206l13.273-38.044 16.32-.677c19.675-.816 21.317.55 28.87 24.018 2.892 8.986 6.05 17.208 7.018 18.27 1.56 1.712 16.336-34.98 16.336-40.566 0-1.217 4.726-2.212 10.503-2.212s10.503.385 10.503.855c0 .968-22.093 65.789-24.568 72.085-1.327 3.375-4.593 4.085-18.808 4.085-19.999 0-20.516-.469-28.904-26.258-2.819-8.665-5.912-15.755-6.874-15.755s-4.928 9.19-8.814 20.423l-7.064 20.423-21.064 1.398z"/></g><path d="M2.178 317.53c-34.587-6.784-65.547-25.82-85.786-52.744-14.695-19.548-22.097-36.101-27.955-62.514l-1.282-5.782 51.487 1.504 19.98-57.342h10.643c5.854 0 10.643.243 10.643.541s-9.054 27.669-20.12 60.825-20.12 62.38-20.12 64.94 2.222 6.878 4.939 9.595l4.939 4.939 174.22.151-8.048 6.953c-12.277 10.607-36.835 22.562-55.579 27.055-17.69 4.241-41.915 5.026-57.96 1.878zM22.51 36.101c-7.82.049-15.011.624-20.525 1.796l-11.011 2.342-11.86 36.625-12.775 39.25c-.702 2 1.832 2.477 10.693 2.012l11.612-.609L2.374 76.27h25.991c14.294 0 25.987.664 25.987 1.478s-9.054 29.255-20.12 63.201-20.12 64.345-20.12 67.551c0 12.136 1.279 12.523 43.258 13.18l71.339.531 33.111-.071 2.68-9.054c1.474-4.98 3.227-16.479 3.898-25.555 4.737-64.069-34.708-123.392-96.328-144.875-12.113-4.223-32.358-6.663-49.561-6.555zM74.849 76.27h25.967c14.282 0 25.952.679 25.936 1.509s-1.248 5.583-2.735 10.563l-2.704 9.054-26.439.562c-14.542.309-26.439-.21-26.439-1.151s1.443-5.948 3.207-11.125zm-13.53 42.252h25.692c19.264 0 25.665.629 25.59 2.515-.055 1.383-6.166 20.623-13.581 42.755l-13.483 40.24-25.653.562c-19.521.428-25.653-.041-25.653-1.961 0-1.387 6.096-20.879 13.546-43.317zm-173.868 55.147c-.115-19.985 5.164-41.706 14.692-60.451 7.047-13.864 17.454-29.322 17.35-25.771-.031 1.045-7.232 24.535-16.002 52.2l-15.946 50.3-.094-16.277z" fill="#e70012"/></g></svg>