<svg xmlns="http://www.w3.org/2000/svg" height="800" width="1200" viewBox="-47.834565 -19.96055 414.56623 119.7633"><path d="M278.4035 73.6377c-2.0075 3.4126-6.8875 6.2046-10.8463 6.2046H4.4182c-3.9595 0-5.5581-2.792-3.5518-6.2046L40.4924 6.206C42.4976 2.7929 47.3775 0 51.338 0h263.1404c3.9587 0 5.5587 2.7929 3.5525 6.206l-39.6275 67.4317" fill="#f79011"/><path d="M237.701 52.0956h7.2524V26.2973h-7.2524zm17.6825-12.8686h-.0163l.0163-.0595 7.445-12.8701h-7.2525l-7.4475 12.8701.0425.0595h-.0425l7.4475 12.8686h7.2525l-7.445-12.8686m-80.0163-12.9272h-5.825L154.646 52.0956h7.3362L172.591 33.729v18.3666h7.3325V26.2998h-4.5563m-79.4564 15.043h11.4185l2.4722-4.231h-11.582l-2.3087 4.231" fill="#fff"/><path d="M93.5768 36.0825l.0074.0015c0-3.2607.9741-4.4849 4.1455-4.4849h10.3198l3.0875-5.3481H96.6472c-6.1709 0-10.2481 2.163-10.2481 9.9814V52.146h22.295l3.0859-5.3467H93.5768V36.0825m125.3229 5.2603h11.42l2.4725-4.231h-11.5837l-2.3088 4.231" fill="#fff"/><path d="M216.8172 36.0825l.0063.0015c0-3.2607.9775-4.4849 4.15-4.4849h10.3175l3.0887-5.3481h-14.49c-6.1712 0-10.2487 2.163-10.2487 9.9814V52.146h22.2937l3.0875-5.3467h-18.205V36.0825m-33.6925-4.4165h9.0238v20.4296h7.0987V31.666h6.6775l3.0963-5.3662h-22.795l-3.1013 5.3662M126.726 46.809h-3.9377V31.5864h3.9377c5.7337 0 7.5325 1.0107 7.5325 7.416 0 6.4052-1.7988 7.8066-7.5325 7.8066zm1.5462-20.558h-12.438v25.895h12.7693c8.9687 0 13.005-3.4595 13.005-13.1509 0-9.1651-3.9963-12.7441-13.3363-12.7441m17.385 25.8446h7.2525V26.2998h-7.2525zM66.2028 39.4101V26.2998l-8.6245.0253-14.8765 25.7437h7.1143L58.95 36.267v15.6959l-.0622.1059h.0622v.0268h7.2528l8.9327-15.8286v15.8286h7.2538V26.2998l-8.6255.0253-7.561 13.085" fill="#fff"/></svg>